<svg aria-hidden="true" style="position: absolute; width: 0; height: 0; overflow: hidden;" version="1.1" xmlns="http://www.w3.org/2000/svg" xmlns:xlink="http://www.w3.org/1999/xlink">
<defs>
<symbol id="icon-agenda" viewBox="0 0 41 32">
<path d="M8.229 18.971q0-1.143 0.914-2.057l15.543-15.086q0.686-0.686 2.057-1.371 1.371-0.457 2.514-0.457h9.143q1.143 0 1.829 0.914 0.914 0.686 0.914 1.829v8.686q0 1.143-0.686 2.514-0.457 1.371-1.371 2.057l-15.314 15.314q-0.914 0.686-2.057 0.686t-2.057-0.686l-10.514-10.514q-0.914-0.686-0.914-1.829zM32.229 8.686q0.914 0.686 2.057 0.686t1.829-0.686q0.914-0.914 0.914-1.829 0-1.143-0.914-2.057-0.686-0.686-1.829-0.686t-2.057 0.686q-0.686 0.914-0.686 2.057 0 0.914 0.686 1.829zM0.914 16.914l15.314-15.086q0.914-0.686 2.286-1.371 1.371-0.457 2.514-0.457h4.8q-1.143 0-2.514 0.457-1.371 0.686-2.057 1.371l-15.543 15.086q-0.914 0.914-0.914 2.057t0.914 1.829l10.057 10.057q-0.686 0.457-1.143 0.914-0.457 0.229-1.143 0.229-1.143 0-2.057-0.686l-10.514-10.514q-0.914-0.686-0.914-1.829t0.914-2.057z"></path>
</symbol>
<symbol id="icon-date" viewBox="0 0 32 32">
<path d="M11.6 17.6v2.6c0 0.4-0.4 0.8-0.8 0.8h-2.6c-0.4 0-0.8-0.4-0.8-0.8v-2.6c0-0.4 0.4-0.6 0.8-0.6h2.6c0.4 0 0.8 0.2 0.8 0.6zM18 20.2c0 0.4-0.2 0.8-0.8 0.8h-2.4c-0.6 0-0.8-0.4-0.8-0.8v-2.6c0-0.4 0.2-0.6 0.8-0.6h2.4c0.6 0 0.8 0.2 0.8 0.6zM24.6 20.2c0 0.4-0.4 0.8-0.8 0.8h-2.6c-0.4 0-0.8-0.4-0.8-0.8v-2.4c0-0.4 0.4-0.8 0.8-0.8h2.6c0.4 0 0.8 0.4 0.8 0.8zM11.6 24v2.4c0 0.4-0.4 0.8-0.8 0.8h-2.6c-0.4 0-0.8-0.4-0.8-0.8v-2.4c0-0.4 0.4-0.8 0.8-0.8h2.6c0.4 0 0.8 0.4 0.8 0.8zM18 26.4c0 0.4-0.2 0.8-0.8 0.8h-2.4c-0.6 0-0.8-0.4-0.8-0.8v-2.4c0-0.4 0.2-0.8 0.8-0.8h2.4c0.6 0 0.8 0.4 0.8 0.8zM24.6 23.8v2.6c0 0.4-0.4 0.6-0.8 0.6h-2.6c-0.4 0-0.8-0.2-0.8-0.6v-2.6c0-0.4 0.4-0.8 0.8-0.8h2.6c0.4 0 0.8 0.4 0.8 0.8zM32 6.2v22.8c0 1.4-1.4 2.8-3 2.8h-26c-1.6 0-3-1.4-3-2.8v-22.8c0-1.6 1.2-2.8 2.8-2.8v3.8c0 1.8 1.4 3.2 3.2 3.2h2.2c1.8 0 3.2-1.4 3.2-3.2v-3.8h9.2v3.8c0 1.8 1.4 3.2 3.2 3.2h2.2c1.8 0 3.2-1.4 3.2-3.2v-3.8c1.6 0 2.8 1.2 2.8 2.8zM28.2 27.4v-11.6c0-0.8-0.6-1.2-1.2-1.2h-22c-0.6 0-1.2 0.4-1.2 1.2v11.6c0 0.8 0.6 1.4 1.2 1.4h22c0.6 0 1.2-0.6 1.2-1.4zM5 7.2v-6.4c0-0.6 0.4-1 1-1h2.2c0.6 0 1 0.4 1 1v6.4c0 0.6-0.4 1.2-1 1.2h-2.2c-0.6 0-1-0.6-1-1.2zM22.8 7.2v-6.4c0-0.6 0.4-1 1-1h2c0.6 0 1.2 0.4 1.2 1v6.4c0 0.6-0.6 1.2-1.2 1.2h-2c-0.6 0-1-0.6-1-1.2z"></path>
</symbol>
<symbol id="icon-download" viewBox="0 0 43 32">
<path d="M23.467 31.543h-14.629c-4.876-0.457-8.533-4.571-8.533-9.448 0-2.895 1.371-5.638 3.657-7.314q-0.152-0.61-0.152-1.371c0-1.676 0.762-3.352 1.981-4.571s2.895-1.829 4.724-1.829q0.61 0 1.067 0c1.524-2.438 3.657-4.267 6.4-5.181 3.048-1.067 6.248-0.914 9.143 0.457 3.505 1.676 5.943 4.876 6.552 8.686 5.181 1.524 8.533 6.705 7.467 12.038-0.762 4.724-4.571 8.229-9.295 8.533zM10.362 9.295c-1.067 0-2.133 0.457-2.895 1.219s-1.219 1.829-1.219 3.048q0 0.61 0.305 1.371l0.305 0.914-0.914 0.457c-1.981 1.219-3.352 3.352-3.352 5.79 0 3.657 2.743 6.857 6.4 7.162h22.705c3.657-0.305 6.552-3.048 7.314-6.705 0.762-4.267-2.133-8.533-6.552-9.448l-0.762-0.152-0.152-0.914c-0.305-3.352-2.438-6.095-5.333-7.619-2.438-1.067-5.029-1.219-7.314-0.457-2.438 0.914-4.419 2.59-5.638 5.029l-0.457 0.914-0.914-0.305q-0.762-0.305-1.371-0.305 0 0-0.152 0zM26.971 20.114l-5.486 7.314q0 0.152-0.152 0.152c-0.305 0.305-0.914 0.152-1.219-0.152l-5.333-7.314q-0.152-0.305-0.152-0.61c0-0.457 0.457-0.762 0.914-0.762h2.743v-8.381h5.181v8.381h2.743q0.305 0 0.457 0.152c0.457 0.305 0.457 0.762 0.305 1.219z"></path>
</symbol>
<symbol id="icon-fav" viewBox="0 0 32 32">
<path fill="#fff" style="fill: var(--color1, #fff)" d="M31.508 13.785l-6.646 6.154c-0.492 0.246-0.738 0.985-0.492 1.477l1.969 8.615c0.246 1.477-0.985 2.462-2.215 1.723l-7.385-4.431c-0.492-0.492-0.985-0.492-1.477 0l-7.385 4.431c-1.231 0.738-2.462-0.492-2.215-1.723l1.969-8.615c0-0.492 0-1.231-0.492-1.477l-6.646-6.154c-0.985-0.985-0.492-2.708 0.985-2.954l8.615-0.738c0.738 0 1.231-0.492 1.231-0.985l3.2-8.123c0.492-1.231 2.215-1.231 2.708 0l3.2 8.123c0.246 0.492 0.738 0.985 1.231 0.985l8.862 0.738c1.231 0.246 1.969 1.969 0.985 2.954z"></path>
</symbol>
<symbol id="icon-heart" viewBox="0 0 35 32">
<path d="M33.309 14.109c0.291-1.164 0.436-2.036 0.436-2.764 0-0.388-0.048-0.679-0.145-0.873 0 0 0 0 0 0s0 0 0 0c-0.291-2.618-1.309-4.945-3.055-6.691-1.6-1.745-3.927-2.764-6.4-2.764-2.909 0-5.527 1.309-7.273 3.345-1.745-2.036-4.218-3.345-6.982-3.345-2.618 0-4.8 1.018-6.545 2.764s-2.764 4.073-3.055 6.691c0 0 0 0 0 0s0 0 0 0c0 0.194 0 0.485 0 0.873 0 0.727 0 1.6 0.291 2.764 0.727 2.909 2.327 5.527 4.655 7.564l10.909 9.6c0.436 0.436 1.018 0.436 1.455 0l11.055-9.6c2.327-2.036 3.927-4.655 4.655-7.564zM31.273 13.527c-0.582 2.473-2.036 4.8-4.073 6.545l-10.327 9.018-10.182-9.018c-2.036-1.745-3.345-4.073-3.927-6.545-0.291-0.873-0.291-1.6-0.291-2.182q0-0.436 0-0.582c0.145-2.327 1.164-4.218 2.473-5.527s2.909-2.036 4.945-2.036c2.473 0 4.655 1.309 6.109 3.491 0.145 0.291 0.436 0.582 0.873 0.582s0.727-0.145 0.873-0.582c1.455-2.182 3.782-3.491 6.4-3.491 1.891 0 3.636 0.727 4.945 2.036s2.182 3.2 2.327 5.527q0.145 0.145 0.145 0.582c0 0.582-0.145 1.309-0.291 2.182z"></path>
</symbol>
<symbol id="icon-loaction" viewBox="0 0 26 32">
<path d="M12.16 1.707c6.4 0 11.733 5.12 11.733 11.52 0 9.6-11.733 18.347-11.733 18.347s-11.733-8.96-11.733-18.347c0-6.4 5.12-11.52 11.733-11.52zM5.12 13.013c0 3.84 3.2 6.827 7.040 6.827s6.827-2.987 6.827-6.827c0-3.84-2.987-6.827-6.827-6.827s-7.040 2.987-7.040 6.827z"></path>
</symbol>
<symbol id="icon-share" viewBox="0 0 29 32">
<path d="M26.667 22.267c0.933 0.933 1.6 2.4 1.6 3.867s-0.667 2.8-1.6 3.867c-1.067 1.067-2.4 1.6-3.867 1.6s-2.8-0.533-3.733-1.6c-1.067-1.067-1.6-2.4-1.6-3.867q0-0.8 0.133-1.6l-7.733-4.8c-1.067 1.333-2.533 2.133-4.267 2.133-2.933 0-5.333-2.533-5.333-5.6s2.4-5.467 5.333-5.467c1.733 0 3.2 0.8 4.267 2.133l7.733-4.8q-0.133-0.8-0.133-1.6c0-3.067 2.4-5.6 5.333-5.6 3.067 0 5.467 2.533 5.467 5.6s-2.4 5.467-5.467 5.467c-1.733 0-3.2-0.8-4.267-2.133l-7.733 4.8q0.267 0.8 0.267 1.6 0 0.933-0.267 1.733l7.733 4.8q0.267-0.4 0.533-0.533c0.933-1.067 2.267-1.733 3.733-1.733s2.8 0.667 3.867 1.733z"></path>
</symbol>
</defs>
</svg>
