<!-- Generated by IcoMoon.io -->
<svg version="1.1" xmlns="http://www.w3.org/2000/svg" width="41" height="32" viewBox="0 0 41 32">
<title>agenda</title>
<path d="M8.229 18.971q0-1.143 0.914-2.057l15.543-15.086q0.686-0.686 2.057-1.371 1.371-0.457 2.514-0.457h9.143q1.143 0 1.829 0.914 0.914 0.686 0.914 1.829v8.686q0 1.143-0.686 2.514-0.457 1.371-1.371 2.057l-15.314 15.314q-0.914 0.686-2.057 0.686t-2.057-0.686l-10.514-10.514q-0.914-0.686-0.914-1.829zM32.229 8.686q0.914 0.686 2.057 0.686t1.829-0.686q0.914-0.914 0.914-1.829 0-1.143-0.914-2.057-0.686-0.686-1.829-0.686t-2.057 0.686q-0.686 0.914-0.686 2.057 0 0.914 0.686 1.829zM0.914 16.914l15.314-15.086q0.914-0.686 2.286-1.371 1.371-0.457 2.514-0.457h4.8q-1.143 0-2.514 0.457-1.371 0.686-2.057 1.371l-15.543 15.086q-0.914 0.914-0.914 2.057t0.914 1.829l10.057 10.057q-0.686 0.457-1.143 0.914-0.457 0.229-1.143 0.229-1.143 0-2.057-0.686l-10.514-10.514q-0.914-0.686-0.914-1.829t0.914-2.057z"></path>
</svg>
