<!-- Generated by IcoMoon.io -->
<svg version="1.1" xmlns="http://www.w3.org/2000/svg" width="32" height="32" viewBox="0 0 32 32">
<title>date</title>
<path d="M11.6 17.6v2.6c0 0.4-0.4 0.8-0.8 0.8h-2.6c-0.4 0-0.8-0.4-0.8-0.8v-2.6c0-0.4 0.4-0.6 0.8-0.6h2.6c0.4 0 0.8 0.2 0.8 0.6zM18 20.2c0 0.4-0.2 0.8-0.8 0.8h-2.4c-0.6 0-0.8-0.4-0.8-0.8v-2.6c0-0.4 0.2-0.6 0.8-0.6h2.4c0.6 0 0.8 0.2 0.8 0.6zM24.6 20.2c0 0.4-0.4 0.8-0.8 0.8h-2.6c-0.4 0-0.8-0.4-0.8-0.8v-2.4c0-0.4 0.4-0.8 0.8-0.8h2.6c0.4 0 0.8 0.4 0.8 0.8zM11.6 24v2.4c0 0.4-0.4 0.8-0.8 0.8h-2.6c-0.4 0-0.8-0.4-0.8-0.8v-2.4c0-0.4 0.4-0.8 0.8-0.8h2.6c0.4 0 0.8 0.4 0.8 0.8zM18 26.4c0 0.4-0.2 0.8-0.8 0.8h-2.4c-0.6 0-0.8-0.4-0.8-0.8v-2.4c0-0.4 0.2-0.8 0.8-0.8h2.4c0.6 0 0.8 0.4 0.8 0.8zM24.6 23.8v2.6c0 0.4-0.4 0.6-0.8 0.6h-2.6c-0.4 0-0.8-0.2-0.8-0.6v-2.6c0-0.4 0.4-0.8 0.8-0.8h2.6c0.4 0 0.8 0.4 0.8 0.8zM32 6.2v22.8c0 1.4-1.4 2.8-3 2.8h-26c-1.6 0-3-1.4-3-2.8v-22.8c0-1.6 1.2-2.8 2.8-2.8v3.8c0 1.8 1.4 3.2 3.2 3.2h2.2c1.8 0 3.2-1.4 3.2-3.2v-3.8h9.2v3.8c0 1.8 1.4 3.2 3.2 3.2h2.2c1.8 0 3.2-1.4 3.2-3.2v-3.8c1.6 0 2.8 1.2 2.8 2.8zM28.2 27.4v-11.6c0-0.8-0.6-1.2-1.2-1.2h-22c-0.6 0-1.2 0.4-1.2 1.2v11.6c0 0.8 0.6 1.4 1.2 1.4h22c0.6 0 1.2-0.6 1.2-1.4zM5 7.2v-6.4c0-0.6 0.4-1 1-1h2.2c0.6 0 1 0.4 1 1v6.4c0 0.6-0.4 1.2-1 1.2h-2.2c-0.6 0-1-0.6-1-1.2zM22.8 7.2v-6.4c0-0.6 0.4-1 1-1h2c0.6 0 1.2 0.4 1.2 1v6.4c0 0.6-0.6 1.2-1.2 1.2h-2c-0.6 0-1-0.6-1-1.2z"></path>
</svg>
