<!-- Generated by IcoMoon.io -->
<svg version="1.1" xmlns="http://www.w3.org/2000/svg" width="43" height="32" viewBox="0 0 43 32">
<title>download</title>
<path d="M23.467 31.543h-14.629c-4.876-0.457-8.533-4.571-8.533-9.448 0-2.895 1.371-5.638 3.657-7.314q-0.152-0.61-0.152-1.371c0-1.676 0.762-3.352 1.981-4.571s2.895-1.829 4.724-1.829q0.61 0 1.067 0c1.524-2.438 3.657-4.267 6.4-5.181 3.048-1.067 6.248-0.914 9.143 0.457 3.505 1.676 5.943 4.876 6.552 8.686 5.181 1.524 8.533 6.705 7.467 12.038-0.762 4.724-4.571 8.229-9.295 8.533zM10.362 9.295c-1.067 0-2.133 0.457-2.895 1.219s-1.219 1.829-1.219 3.048q0 0.61 0.305 1.371l0.305 0.914-0.914 0.457c-1.981 1.219-3.352 3.352-3.352 5.79 0 3.657 2.743 6.857 6.4 7.162h22.705c3.657-0.305 6.552-3.048 7.314-6.705 0.762-4.267-2.133-8.533-6.552-9.448l-0.762-0.152-0.152-0.914c-0.305-3.352-2.438-6.095-5.333-7.619-2.438-1.067-5.029-1.219-7.314-0.457-2.438 0.914-4.419 2.59-5.638 5.029l-0.457 0.914-0.914-0.305q-0.762-0.305-1.371-0.305 0 0-0.152 0zM26.971 20.114l-5.486 7.314q0 0.152-0.152 0.152c-0.305 0.305-0.914 0.152-1.219-0.152l-5.333-7.314q-0.152-0.305-0.152-0.61c0-0.457 0.457-0.762 0.914-0.762h2.743v-8.381h5.181v8.381h2.743q0.305 0 0.457 0.152c0.457 0.305 0.457 0.762 0.305 1.219z"></path>
</svg>
