<!-- Generated by IcoMoon.io -->
<svg version="1.1" xmlns="http://www.w3.org/2000/svg" width="32" height="32" viewBox="0 0 32 32">
<title>fav</title>
<path fill="#fff" d="M31.508 13.785l-6.646 6.154c-0.492 0.246-0.738 0.985-0.492 1.477l1.969 8.615c0.246 1.477-0.985 2.462-2.215 1.723l-7.385-4.431c-0.492-0.492-0.985-0.492-1.477 0l-7.385 4.431c-1.231 0.738-2.462-0.492-2.215-1.723l1.969-8.615c0-0.492 0-1.231-0.492-1.477l-6.646-6.154c-0.985-0.985-0.492-2.708 0.985-2.954l8.615-0.738c0.738 0 1.231-0.492 1.231-0.985l3.2-8.123c0.492-1.231 2.215-1.231 2.708 0l3.2 8.123c0.246 0.492 0.738 0.985 1.231 0.985l8.862 0.738c1.231 0.246 1.969 1.969 0.985 2.954z"></path>
</svg>
