<!-- Generated by IcoMoon.io -->
<svg version="1.1" xmlns="http://www.w3.org/2000/svg" width="35" height="32" viewBox="0 0 35 32">
<title>heart</title>
<path d="M33.309 14.109c0.291-1.164 0.436-2.036 0.436-2.764 0-0.388-0.048-0.679-0.145-0.873 0 0 0 0 0 0s0 0 0 0c-0.291-2.618-1.309-4.945-3.055-6.691-1.6-1.745-3.927-2.764-6.4-2.764-2.909 0-5.527 1.309-7.273 3.345-1.745-2.036-4.218-3.345-6.982-3.345-2.618 0-4.8 1.018-6.545 2.764s-2.764 4.073-3.055 6.691c0 0 0 0 0 0s0 0 0 0c0 0.194 0 0.485 0 0.873 0 0.727 0 1.6 0.291 2.764 0.727 2.909 2.327 5.527 4.655 7.564l10.909 9.6c0.436 0.436 1.018 0.436 1.455 0l11.055-9.6c2.327-2.036 3.927-4.655 4.655-7.564zM31.273 13.527c-0.582 2.473-2.036 4.8-4.073 6.545l-10.327 9.018-10.182-9.018c-2.036-1.745-3.345-4.073-3.927-6.545-0.291-0.873-0.291-1.6-0.291-2.182q0-0.436 0-0.582c0.145-2.327 1.164-4.218 2.473-5.527s2.909-2.036 4.945-2.036c2.473 0 4.655 1.309 6.109 3.491 0.145 0.291 0.436 0.582 0.873 0.582s0.727-0.145 0.873-0.582c1.455-2.182 3.782-3.491 6.4-3.491 1.891 0 3.636 0.727 4.945 2.036s2.182 3.2 2.327 5.527q0.145 0.145 0.145 0.582c0 0.582-0.145 1.309-0.291 2.182z"></path>
</svg>
