<!-- Generated by IcoMoon.io -->
<svg version="1.1" xmlns="http://www.w3.org/2000/svg" width="29" height="32" viewBox="0 0 29 32">
<title>share</title>
<path d="M26.667 22.267c0.933 0.933 1.6 2.4 1.6 3.867s-0.667 2.8-1.6 3.867c-1.067 1.067-2.4 1.6-3.867 1.6s-2.8-0.533-3.733-1.6c-1.067-1.067-1.6-2.4-1.6-3.867q0-0.8 0.133-1.6l-7.733-4.8c-1.067 1.333-2.533 2.133-4.267 2.133-2.933 0-5.333-2.533-5.333-5.6s2.4-5.467 5.333-5.467c1.733 0 3.2 0.8 4.267 2.133l7.733-4.8q-0.133-0.8-0.133-1.6c0-3.067 2.4-5.6 5.333-5.6 3.067 0 5.467 2.533 5.467 5.6s-2.4 5.467-5.467 5.467c-1.733 0-3.2-0.8-4.267-2.133l-7.733 4.8q0.267 0.8 0.267 1.6 0 0.933-0.267 1.733l7.733 4.8q0.267-0.4 0.533-0.533c0.933-1.067 2.267-1.733 3.733-1.733s2.8 0.667 3.867 1.733z"></path>
</svg>
